HIERARCHY
ROOT Hips
{
	OFFSET 0.000000 0.000000 0.000000
	CHANNELS 6 Xposition Yposition Zposition Xrotation Yrotation Zrotation
	JOINT LeftUpLeg_virtual
	{
		OFFSET 0.000000 0.000000 0.000000
		CHANNELS 3 Xrotation Yrotation Zrotation
		JOINT LeftUpLeg
		{
			OFFSET 15.427100 -6.655098 0.678600
			CHANNELS 3 Xrotation Yrotation Zrotation
			JOINT LeftLeg
			{
				OFFSET 4.081073 -39.591068 13.024000
				CHANNELS 3 Xrotation Yrotation Zrotation
				JOINT LeftFoot
				{
					OFFSET -4.081074 -37.707932 -15.979700
					CHANNELS 3 Xrotation Yrotation Zrotation
					JOINT LeftToeBase
					{
						OFFSET 5.346399 -15.068900 20.645000
						CHANNELS 3 Xrotation Yrotation Zrotation
						JOINT LeftToe_End
						{
							OFFSET 2.754700 0.931300 11.300900
							CHANNELS 3 Xrotation Yrotation Zrotation
							End Site
							{
								OFFSET 0 0 0
							}
						}
					}
				}
			}
		}
	}
	JOINT RightUpLeg_virtual
	{
		OFFSET 0.000000 0.000000 0.000000
		CHANNELS 3 Xrotation Yrotation Zrotation
		JOINT RightUpLeg
		{
			OFFSET -15.569500 -6.655098 0.678600
			CHANNELS 3 Xrotation Yrotation Zrotation
			JOINT RightLeg
			{
				OFFSET -4.081825 -39.591045 13.023800
				CHANNELS 3 Xrotation Yrotation Zrotation
				JOINT RightFoot
				{
					OFFSET 4.081824 -37.707954 -15.979600
					CHANNELS 3 Xrotation Yrotation Zrotation
					JOINT RightToeBase
					{
						OFFSET -5.346400 -15.068900 20.645000
						CHANNELS 3 Xrotation Yrotation Zrotation
						JOINT RightToe_End
						{
							OFFSET -2.754700 0.931300 11.300900
							CHANNELS 3 Xrotation Yrotation Zrotation
							End Site
							{
								OFFSET 0 0 0
							}
						}
					}
				}
			}
		}
	}
	JOINT Spine_virtual
	{
		OFFSET 0.000000 0.000000 0.000000
		CHANNELS 3 Xrotation Yrotation Zrotation
		JOINT Spine
		{
			OFFSET -0.279200 12.230698 -2.892100
			CHANNELS 3 Xrotation Yrotation Zrotation
			JOINT Spine1
			{
				OFFSET -0.232667 10.192268 -1.242267
				CHANNELS 3 Xrotation Yrotation Zrotation
				JOINT Spine1_split
				{
					OFFSET -0.232667 10.192268 -1.242267
					CHANNELS 3 Xrotation Yrotation Zrotation
					JOINT Spine2
					{
						OFFSET -0.232667 10.192268 -1.242267
						CHANNELS 3 Xrotation Yrotation Zrotation
						JOINT Neck_virtual
						{
							OFFSET 0.000000 0.000000 0.000000
							CHANNELS 3 Xrotation Yrotation Zrotation
							JOINT Neck
							{
								OFFSET -0.418800 17.814194 8.416900
								CHANNELS 3 Xrotation Yrotation Zrotation
								JOINT Head
								{
									OFFSET 0.000000 7.031097 3.806800
									CHANNELS 3 Xrotation Yrotation Zrotation
									JOINT HeadTop_End
									{
										OFFSET 0.000000 24.646606 12.978600
										CHANNELS 3 Xrotation Yrotation Zrotation
										End Site
										{
											OFFSET 0 0 0
										}
									}
								}
							}
						}
						JOINT LeftShoulder_virtual
						{
							OFFSET 0.000000 0.000000 0.000000
							CHANNELS 3 Xrotation Yrotation Zrotation
							JOINT LeftShoulder
							{
								OFFSET 8.476499 7.247704 -3.868750
								CHANNELS 3 Xrotation Yrotation Zrotation
								JOINT LeftShoulder_split
								{
									OFFSET 8.476499 7.247704 -3.868750
									CHANNELS 3 Xrotation Yrotation Zrotation
									JOINT LeftArm
									{
										OFFSET 9.308998 -2.777710 0.208600
										CHANNELS 3 Xrotation Yrotation Zrotation
										JOINT LeftForeArm
										{
											OFFSET 29.972298 0.000000 0.000000
											CHANNELS 3 Xrotation Yrotation Zrotation
											JOINT LeftHand
											{
												OFFSET 26.026505 0.000000 0.000000
												CHANNELS 3 Xrotation Yrotation Zrotation
												End Site
												{
													OFFSET 0 0 0
												}
											}
										}
									}
								}
							}
						}
						JOINT RightShoulder_virtual
						{
							OFFSET 0.000000 0.000000 0.000000
							CHANNELS 3 Xrotation Yrotation Zrotation
							JOINT RightShoulder
							{
								OFFSET -7.570500 7.247704 -3.868750
								CHANNELS 3 Xrotation Yrotation Zrotation
								JOINT RightShoulder_split
								{
									OFFSET -7.570500 7.247704 -3.868750
									CHANNELS 3 Xrotation Yrotation Zrotation
									JOINT RightArm
									{
										OFFSET -9.308998 -2.777710 0.208500
										CHANNELS 3 Xrotation Yrotation Zrotation
										JOINT RightForeArm
										{
											OFFSET -29.972300 0.000000 0.000000
											CHANNELS 3 Xrotation Yrotation Zrotation
											JOINT RightHand
											{
												OFFSET -26.026505 0.000000 0.000000
												CHANNELS 3 Xrotation Yrotation Zrotation
												End Site
												{
													OFFSET 0 0 0
												}
											}
										}
									}
								}
							}
						}
					}
				}
			}
		}
	}
}
MOTION
Frames: 4
Frame Time: 0.03333333
1.194876 67.532387 2.555088 0.000000 0.000000 0.000000 28.193556 -59.928804 28.606176 -59.753657 18.618725 39.578067 48.597107 -22.211511 -2.744152 -5.051833 4.585895 -14.934265 -6.911652 -6.929766 0.566659 0.000000 0.000000 0.000000 23.141367 -55.648638 25.257971 -35.520255 7.738631 -44.857240 57.639406 10.553389 -0.898454 -36.936143 -2.517364 28.735709 0.421920 2.509115 1.117076 0.000000 0.000000 0.000000 11.880325 -44.133773 16.990842 3.872115 10.669256 0.107357 5.771866 8.863357 -4.063320 2.183287 -3.365818 2.002507 0.000000 0.000000 0.000000 -9.882544 8.552012 -2.670208 -21.000678 -9.528775 3.446516 3.204547 4.717597 -6.439302 0.000000 0.000000 0.000000 -8.173858 7.896021 -0.758716 2.070050 -24.354725 3.910136 -2.017284 2.709625 -4.300093 3.964046 20.772910 -59.866048 -34.623192 -59.449536 -33.860974 0.000000 0.000000 0.000000 -9.809793 8.335024 -1.706537 -0.726041 6.538057 2.718535 7.354293 3.975383 9.630844 15.587050 -10.677132 42.569325 -40.209730 54.813812 38.397442 0.000000 0.000000 0.000000 
0.426319 67.377831 2.410122 0.000000 0.000000 0.000000 30.301154 -59.735789 30.033967 -60.020021 19.023428 39.474204 48.573351 -22.909257 -2.104699 -5.099038 3.881614 -15.610162 -6.878521 -7.115555 1.369835 0.000000 0.000000 0.000000 25.328143 -55.054596 26.593604 -35.681393 8.660676 -44.031883 59.366454 10.975919 -1.691003 -36.416817 -3.364699 30.587435 -0.837220 2.339454 1.162698 0.000000 0.000000 0.000000 14.470401 -44.614533 19.172619 4.264789 9.142994 0.585581 6.474040 7.436156 -3.734323 4.211841 -5.184945 3.411777 0.000000 0.000000 0.000000 -9.171999 7.428223 -2.304466 -20.684512 -8.255262 4.166251 2.554415 5.050600 -4.620725 0.000000 0.000000 0.000000 -7.794692 6.581034 -0.799562 1.815925 -23.836110 3.207994 -0.822597 -1.547671 -3.059665 8.071127 23.999745 -58.313751 -29.142375 -54.531827 -28.385935 0.000000 0.000000 0.000000 -9.850267 7.128243 -1.459542 -0.491445 6.845175 4.087147 5.420049 2.115847 9.051367 14.062942 -13.583962 43.865964 -48.216402 59.748255 45.864085 0.000000 0.000000 0.000000 
-1.057655 67.159500 2.408749 0.000000 0.000000 0.000000 33.131793 -58.435233 32.259670 -60.459468 19.024459 38.832170 47.753257 -23.081448 -1.683247 -5.195131 3.920921 -16.288702 -7.079353 -7.251515 2.173070 0.000000 0.000000 0.000000 28.652572 -53.629177 29.030374 -35.610151 9.591023 -43.195288 60.846549 10.753697 -2.671564 -37.794592 -5.403747 30.920949 0.703186 2.300898 1.427610 0.000000 0.000000 0.000000 19.155190 -44.308967 22.856499 5.072076 6.234049 1.428654 7.733492 4.109560 -3.411934 4.143622 -4.362357 3.901942 0.000000 0.000000 0.000000 -7.892774 4.407327 -2.170187 -19.564990 -6.960487 5.801437 0.397956 5.101350 -1.301207 0.000000 0.000000 0.000000 -6.599838 3.464038 -1.251113 1.951376 -22.423830 3.072596 0.923113 -6.379727 -0.782302 10.567031 28.199561 -55.822979 -21.191524 -48.178771 -20.710242 0.000000 0.000000 0.000000 -8.953313 3.929163 -1.751776 -0.499462 6.532540 6.262453 5.303793 1.839748 9.242559 9.811825 -15.888856 42.799147 -71.074552 65.789229 68.759747 0.000000 0.000000 0.000000 
-2.910200 66.915024 2.547028 0.000000 0.000000 0.000000 36.166893 -56.213048 34.814444 -60.726502 18.816116 37.675416 46.150246 -22.538456 -1.573203 -5.227501 4.740105 -16.460778 -7.507491 -7.291670 2.648893 0.000000 0.000000 0.000000 32.098221 -51.550289 31.876664 -35.637458 10.382675 -42.602543 61.786513 10.109007 -3.723589 -40.263911 -8.152122 30.398115 3.989073 2.436316 1.771109 0.000000 0.000000 0.000000 25.001272 -42.963990 27.070750 6.422325 2.498587 2.353206 9.570026 -0.296701 -3.087196 2.213526 -2.349384 3.564700 0.000000 0.000000 0.000000 -6.035150 0.179272 -2.285240 -17.897039 -5.557742 7.381509 -2.885041 4.307391 2.781300 0.000000 0.000000 0.000000 -4.469976 -0.784937 -1.899734 2.535409 -20.775976 3.548926 2.130780 -9.900079 0.968915 9.399121 32.367536 -51.230766 -13.519794 -40.841635 -13.376143 0.000000 0.000000 0.000000 -6.959644 -0.440002 -2.302072 -0.586019 6.085486 9.239496 6.432748 2.575838 9.587560 4.254699 -16.524330 39.117333 -97.220100 66.409888 95.478005 0.000000 0.000000 0.000000 
